# xmcd
#
# Track frame offsets:
#	150
#	12412
#	24411
#	37833
#	51866
#	68526
#	82401
#	96126
#	107733
#	124796
#	138247
#	152702
#	165283
#	179429
#	191627
#	202565
#	214263
#	226068
#	240398
#	254296
#	266967
#	279113
#	292973
#	305484
#	317692
#
# Disc length: 4392 seconds
#
# Revision: 1
# Processed by: cddbd v1.5.2PL0 Copyright (c) Steve Scherf et al.
# Submitted via: audiograbber 1.83.01
#
DISCID=4e112619
DTITLE=Div. - A Bad Case Of The Blues - CD 2
DYEAR=2011
DGENRE=Blues
TTITLE0=Otis Span - It Must Have Been The Devil
TTITLE1=Robert Lockwood Jr. - (I´m Gonna) Dig Myself A Hole
TTITLE2=Sunnylands Slim - Brown Sinned Woman
TTITLE3=Muddy Waters - Close To You
TTITLE4=Champion Jack Dupree - T.B. Blues
TTITLE5=John Lee Hooker - Apologize
TTITLE6=B.B. King - Blind Love
TTITLE7=Howlin´ Wolf - Sitting On Top Of The World
TTITLE8=T-Bone Walker - T-Bone Blues
TTITLE9=Floyd Dixon - Call Operator 211
TTITLE10=Johnny Fuller - Hard Times
TTITLE11=Jimmy Reed - Little Rain
TTITLE12=Pee Wee Crayton - The Telephon Is Ringing
TTITLE13=Elmore James - Make My Dreams Come True
TTITLE14=Roosevelt Sykes - Sweet Old Chicago
TTITLE15=Guitar Slim - Feelin' Sad
TTITLE16=Jimmy Witherspoon - Fast Women And Sloe Gin
TTITLE17=Sonny Boy Williamson - Don´t Start Me Talkin´
TTITLE18=John Lee Hooker - I Don´t Want Your Money
TTITLE19=Jimmy Rogers - Walkin´ By Myself
TTITLE20=Muddy Waters - Long Distance Call
TTITLE21=Sunnyland Slim - Highway 61
TTITLE22=Magic Sam - Easy Baby
TTITLE23=Lightnin´ Hopkins - Coffee Blues
TTITLE24=Lowell Fulson - Blues Never Fail
EXTD=
EXTT0=
EXTT1=
EXTT2=
EXTT3=
EXTT4=
EXTT5=
EXTT6=
EXTT7=
EXTT8=
EXTT9=
EXTT10=
EXTT11=
EXTT12=
EXTT13=
EXTT14=
EXTT15=
EXTT16=
EXTT17=
EXTT18=
EXTT19=
EXTT20=
EXTT21=
EXTT22=
EXTT23=
EXTT24=
PLAYORDER=
